<svg width="18" height="19" viewBox="0 0 18 19" fill="none" xmlns="http://www.w3.org/2000/svg">
<mask id="mask0_4_363" style="mask-type:alpha" maskUnits="userSpaceOnUse" x="0" y="0" width="18" height="19">
<rect y="0.5" width="18" height="18" fill="#D9D9D9"/>
</mask>
<g mask="url(#mask0_4_363)">
<path d="M8.625 17C7.475 17 6.5 16.6 5.7 15.8C4.9 15 4.5 14.025 4.5 12.875V5C4.5 4.175 4.79375 3.46875 5.38125 2.88125C5.96875 2.29375 6.675 2 7.5 2C8.325 2 9.03125 2.29375 9.61875 2.88125C10.2063 3.46875 10.5 4.175 10.5 5V12.125C10.5 12.65 10.3187 13.0938 9.95625 13.4563C9.59375 13.8188 9.15 14 8.625 14C8.1 14 7.65625 13.8188 7.29375 13.4563C6.93125 13.0938 6.75 12.65 6.75 12.125V5H7.875V12.125C7.875 12.3375 7.94687 12.5156 8.09062 12.6594C8.23438 12.8031 8.4125 12.875 8.625 12.875C8.8375 12.875 9.01562 12.8031 9.15938 12.6594C9.30312 12.5156 9.375 12.3375 9.375 12.125V5C9.375 4.475 9.19375 4.03125 8.83125 3.66875C8.46875 3.30625 8.025 3.125 7.5 3.125C6.975 3.125 6.53125 3.30625 6.16875 3.66875C5.80625 4.03125 5.625 4.475 5.625 5V12.875C5.625 13.7 5.91875 14.4063 6.50625 14.9938C7.09375 15.5813 7.8 15.875 8.625 15.875C9.45 15.875 10.1562 15.5813 10.7437 14.9938C11.3312 14.4063 11.625 13.7 11.625 12.875V5H12.75V12.875C12.75 14.025 12.35 15 11.55 15.8C10.75 16.6 9.775 17 8.625 17Z" fill="white"/>
</g>
</svg>
