<svg width="99" height="94" viewBox="0 0 99 94" fill="none" xmlns="http://www.w3.org/2000/svg">
<g id="Group 1">
<path id="Vector" d="M73.6939 81.8359C69.7437 74.9973 63.6564 70.0936 56.5524 67.769C60.0664 65.6742 62.7965 62.4822 64.3235 58.6832C65.8506 54.8842 66.0901 50.6883 65.0053 46.7398C63.9205 42.7913 61.5713 39.3086 58.3186 36.8264C55.0659 34.3443 51.0895 33 47 33C42.9105 33 38.9341 34.3443 35.6814 36.8264C32.4287 39.3086 30.0795 42.7913 28.9947 46.7398C27.9099 50.6883 28.1494 54.8842 29.6765 58.6832C31.2035 62.4822 33.9336 65.6742 37.4476 67.769C30.3436 70.091 24.2563 74.9947 20.3061 81.8359C20.1613 82.0724 20.0652 82.3356 20.0236 82.6099C19.9819 82.8842 19.9956 83.1641 20.0637 83.4331C20.1318 83.702 20.2531 83.9546 20.4202 84.1759C20.5874 84.3971 20.7972 84.5826 21.0371 84.7214C21.277 84.8602 21.5423 84.9495 21.8172 84.9839C22.0922 85.0184 22.3712 84.9973 22.6379 84.9221C22.9046 84.8468 23.1535 84.7188 23.37 84.5456C23.5865 84.3724 23.7661 84.1576 23.8984 83.9137C28.7848 75.457 37.4216 70.4079 47 70.4079C56.5784 70.4079 65.2152 75.457 70.1016 83.9137C70.2339 84.1576 70.4135 84.3724 70.63 84.5456C70.8465 84.7188 71.0954 84.8468 71.3621 84.9221C71.6288 84.9973 71.9078 85.0184 72.1828 84.9839C72.4577 84.9495 72.723 84.8602 72.9629 84.7214C73.2028 84.5826 73.4126 84.3971 73.5798 84.1759C73.7469 83.9546 73.8682 83.702 73.9363 83.4331C74.0044 83.1641 74.0181 82.8842 73.9764 82.6099C73.9348 82.3356 73.8387 82.0724 73.6939 81.8359ZM32.4756 51.7075C32.4756 48.8308 33.3274 46.0187 34.9234 43.6268C36.5193 41.235 38.7877 39.3707 41.4417 38.2699C44.0957 37.169 47.0161 36.881 49.8336 37.4422C52.651 38.0034 55.2391 39.3886 57.2703 41.4228C59.3016 43.4569 60.6849 46.0485 61.2454 48.8699C61.8058 51.6913 61.5182 54.6158 60.4188 57.2735C59.3195 59.9312 57.4579 62.2028 55.0693 63.801C52.6808 65.3992 49.8727 66.2522 47 66.2522C43.1491 66.2481 39.4572 64.7144 36.7342 61.9876C34.0112 59.2608 32.4797 55.5637 32.4756 51.7075Z" fill="white"/>
<circle id="Ellipse 5" cx="47" cy="47" r="45" stroke="white" stroke-width="4"/>
<g id="Group 2">
<circle id="Ellipse 6" cx="86" cy="69" r="13" fill="white"/>
<path id="Vector_2" d="M86 65V73M82 69H90" stroke="black" stroke-width="2" stroke-linecap="round" stroke-linejoin="round"/>
</g>
</g>
</svg>
