<svg width="20" height="21" viewBox="0 0 20 21" fill="none" xmlns="http://www.w3.org/2000/svg">
<mask id="mask0_8_559" style="mask-type:alpha" maskUnits="userSpaceOnUse" x="0" y="0" width="20" height="21">
<rect y="0.5" width="20" height="20" fill="#D9D9D9"/>
</mask>
<g mask="url(#mask0_8_559)">
<path d="M9.16669 14.6667H5.83335C4.68058 14.6667 3.69794 14.2604 2.88544 13.4479C2.07294 12.6354 1.66669 11.6528 1.66669 10.5C1.66669 9.34723 2.07294 8.36459 2.88544 7.55209C3.69794 6.73959 4.68058 6.33334 5.83335 6.33334H9.16669V8.00001H5.83335C5.13891 8.00001 4.54863 8.24307 4.06252 8.72918C3.57641 9.21529 3.33335 9.80557 3.33335 10.5C3.33335 11.1945 3.57641 11.7847 4.06252 12.2708C4.54863 12.757 5.13891 13 5.83335 13H9.16669V14.6667ZM6.66669 11.3333V9.66668H13.3334V11.3333H6.66669ZM10.8334 14.6667V13H14.1667C14.8611 13 15.4514 12.757 15.9375 12.2708C16.4236 11.7847 16.6667 11.1945 16.6667 10.5C16.6667 9.80557 16.4236 9.21529 15.9375 8.72918C15.4514 8.24307 14.8611 8.00001 14.1667 8.00001H10.8334V6.33334H14.1667C15.3195 6.33334 16.3021 6.73959 17.1146 7.55209C17.9271 8.36459 18.3334 9.34723 18.3334 10.5C18.3334 11.6528 17.9271 12.6354 17.1146 13.4479C16.3021 14.2604 15.3195 14.6667 14.1667 14.6667H10.8334Z" fill="white"/>
</g>
</svg>
