<?xml version="1.0" encoding="UTF-8"?>
<!--Generator: Apple Native CoreSVG 175.5-->
<svg version="1.1" xmlns="http://www.w3.org/2000/svg" width="11.1797"
     height="17.6797">
    <g>
        <rect height="17.6797" opacity="0" width="11.1797" x="0" y="0"/>
        <path d="M0 8.17969C0 11.2422 2.02344 13.3906 5 13.6406L5 15.4609L2.10156 15.4609C1.77344 15.4609 1.50781 15.7266 1.50781 16.0547C1.50781 16.3828 1.77344 16.6406 2.10156 16.6406L9.07812 16.6406C9.40625 16.6406 9.67188 16.3828 9.67188 16.0547C9.67188 15.7266 9.40625 15.4609 9.07812 15.4609L6.17969 15.4609L6.17969 13.6406C9.16406 13.3906 11.1797 11.2422 11.1797 8.17969L11.1797 6.59375C11.1797 6.26562 10.9219 6.00781 10.5938 6.00781C10.2656 6.00781 10 6.26562 10 6.59375L10 8.13281C10 10.7969 8.26562 12.5625 5.59375 12.5625C2.91406 12.5625 1.17969 10.7969 1.17969 8.13281L1.17969 6.59375C1.17969 6.26562 0.921875 6.00781 0.585938 6.00781C0.257812 6.00781 0 6.26562 0 6.59375ZM5.59375 10.8828C7.14844 10.8828 8.19531 9.71875 8.19531 8.05469L8.19531 2.82812C8.19531 1.15625 7.14844 0 5.59375 0C4.03125 0 2.98438 1.15625 2.98438 2.82812L2.98438 8.05469C2.98438 9.71875 4.03125 10.8828 5.59375 10.8828Z"
              fill="currentColor" fill-opacity="0.85"/>
    </g>
</svg>
