<?xml version="1.0" encoding="UTF-8"?>
<!--Generator: Apple Native CoreSVG 175.5-->

<svg version="1.1" xmlns="http://www.w3.org/2000/svg" width="16.3672"
     height="17.1172">
    <g>
        <rect height="17.1172" opacity="0" width="16.3672" x="0" y="0"/>
        <path d="M9.78125 17.1172C10.3438 17.1172 10.7422 16.6328 11.0312 15.8828L16.1484 2.51562C16.2891 2.15625 16.3672 1.83594 16.3672 1.57031C16.3672 1.0625 16.0547 0.75 15.5469 0.75C15.2812 0.75 14.9609 0.828125 14.6016 0.96875L1.16406 6.11719C0.507812 6.36719 0 6.76562 0 7.33594C0 8.05469 0.546875 8.29688 1.29688 8.52344L5.51562 9.80469C6.01562 9.96094 6.29688 9.94531 6.63281 9.63281L15.2031 1.625C15.3047 1.53125 15.4219 1.54688 15.5 1.61719C15.5781 1.69531 15.5859 1.8125 15.4922 1.91406L7.51562 10.5156C7.21094 10.8359 7.1875 11.1016 7.33594 11.625L8.57812 15.75C8.8125 16.5391 9.05469 17.1172 9.78125 17.1172Z"
              fill="currentColor"/>
    </g>
</svg>
