<?xml version="1.0" encoding="UTF-8"?>
<!--Generator: Apple Native CoreSVG 175.5-->
<svg version="1.1" xmlns="http://www.w3.org/2000/svg" width="18.4219"
     height="14.3828">
    <g>
        <rect height="14.3828" opacity="0" width="18.4219" x="0" y="0"/>
        <path d="M17.6172 11.5469L12.9766 7.1875C12.625 6.875 12.2188 6.70312 11.7969 6.70312C11.3672 6.70312 10.9844 6.85156 10.625 7.17188L7.09375 10.3281L5.64844 9.02344C5.32031 8.72656 4.96094 8.57812 4.59375 8.57812C4.24219 8.57812 3.91406 8.71875 3.58594 9.01562L0.609375 11.7031C0.65625 13.1172 1.23438 13.8359 2.39844 13.8359L15.4922 13.8359C16.9062 13.8359 17.6172 13.0469 17.6172 11.5469ZM5.82031 7.26562C6.82812 7.26562 7.65625 6.4375 7.65625 5.42188C7.65625 4.41406 6.82812 3.57812 5.82031 3.57812C4.80469 3.57812 3.97656 4.41406 3.97656 5.42188C3.97656 6.4375 4.80469 7.26562 5.82031 7.26562ZM2.45312 14.3828L15.9688 14.3828C17.6094 14.3828 18.4219 13.5781 18.4219 11.9688L18.4219 2.42188C18.4219 0.8125 17.6094 0 15.9688 0L2.45312 0C0.820312 0 0 0.8125 0 2.42188L0 11.9688C0 13.5781 0.820312 14.3828 2.45312 14.3828ZM2.46875 13.125C1.6875 13.125 1.25781 12.7109 1.25781 11.8984L1.25781 2.49219C1.25781 1.67969 1.6875 1.25781 2.46875 1.25781L15.9531 1.25781C16.7266 1.25781 17.1641 1.67969 17.1641 2.49219L17.1641 11.8984C17.1641 12.7109 16.7266 13.125 15.9531 13.125Z"
              fill="currentColor" fill-opacity="0.85"/>
    </g>
</svg>
